<svg xmlns="http://www.w3.org/2000/svg" viewBox="0 0 800 800"><defs><linearGradient x1="50%" y1="0%" x2="50%" y2="100%" id="ffflurry-grad" gradientTransform="rotate(270)"><stop stop-color="hsl(238, 82%, 13%)" stop-opacity="1" offset="0%"/><stop stop-color="hsl(265, 55%, 30%)" stop-opacity="1" offset="45%"/><stop stop-color="hsl(265, 55%, 60%)" stop-opacity="1" offset="100%"/></linearGradient></defs><rect width="100%" height="100%" fill="hsl(238, 82%, 13%)"/><g fill="url(#ffflurry-grad)"><rect width="256" height="5" x="624" y="654.5" rx="2.5" transform="rotate(118, 752, 657)" opacity="0.62"/><rect width="74" height="5" x="733" y="543.5" rx="2.5" transform="rotate(118, 770, 546)" opacity="0.70"/><rect width="717" height="5" x="-233.5" y="39.5" rx="2.5" transform="rotate(118, 125, 42)" opacity="0.08"/><rect width="693" height="5" x="-139.5" y="705.5" rx="2.5" transform="rotate(118, 207, 708)" opacity="0.86"/><rect width="666" height="5" x="-224" y="341.5" rx="2.5" transform="rotate(118, 109, 344)" opacity="0.49"/><rect width="415" height="5" x="5.5" y="62.5" rx="2.5" transform="rotate(118, 213, 65)" opacity="0.25"/><rect width="543" height="5" x="208.5" y="774.5" rx="2.5" transform="rotate(118, 480, 777)" opacity="0.71"/><rect width="411" height="5" x="192.5" y="100.5" rx="2.5" transform="rotate(118, 398, 103)" opacity="0.35"/><rect width="399" height="5" x="-38.5" y="564.5" rx="2.5" transform="rotate(118, 161, 567)" opacity="0.81"/><rect width="409" height="5" x="328.5" y="514.5" rx="2.5" transform="rotate(118, 533, 517)" opacity="0.48"/><rect width="160" height="5" x="159" y="178.5" rx="2.5" transform="rotate(118, 239, 181)" opacity="0.18"/><rect width="859" height="5" x="321.5" y="307.5" rx="2.5" transform="rotate(118, 751, 310)" opacity="0.83"/><rect width="329" height="5" x="305.5" y="26.5" rx="2.5" transform="rotate(118, 470, 29)" opacity="0.40"/><rect width="339" height="5" x="61.5" y="251.5" rx="2.5" transform="rotate(118, 231, 254)" opacity="0.79"/><rect width="686" height="5" x="421" y="206.5" rx="2.5" transform="rotate(118, 764, 209)" opacity="0.62"/><rect width="523" height="5" x="298.5" y="264.5" rx="2.5" transform="rotate(118, 560, 267)" opacity="0.92"/><rect width="535" height="5" x="20.5" y="69.5" rx="2.5" transform="rotate(118, 288, 72)" opacity="0.50"/><rect width="59" height="5" x="262.5" y="149.5" rx="2.5" transform="rotate(118, 292, 152)" opacity="0.67"/><rect width="811" height="5" x="360.5" y="73.5" rx="2.5" transform="rotate(118, 766, 76)" opacity="0.51"/><rect width="127" height="5" x="614.5" y="550.5" rx="2.5" transform="rotate(118, 678, 553)" opacity="0.40"/><rect width="516" height="5" x="217" y="464.5" rx="2.5" transform="rotate(118, 475, 467)" opacity="0.61"/><rect width="420" height="5" x="-28" y="288.5" rx="2.5" transform="rotate(118, 182, 291)" opacity="0.59"/><rect width="353" height="5" x="165.5" y="780.5" rx="2.5" transform="rotate(118, 342, 783)" opacity="0.25"/><rect width="283" height="5" x="-52.5" y="524.5" rx="2.5" transform="rotate(118, 89, 527)" opacity="0.45"/><rect width="810" height="5" x="301" y="380.5" rx="2.5" transform="rotate(118, 706, 383)" opacity="0.59"/><rect width="305" height="5" x="91.5" y="330.5" rx="2.5" transform="rotate(118, 244, 333)" opacity="0.47"/><rect width="560" height="5" x="44" y="732.5" rx="2.5" transform="rotate(118, 324, 735)" opacity="0.96"/><rect width="322" height="5" x="605" y="409.5" rx="2.5" transform="rotate(118, 766, 412)" opacity="0.65"/><rect width="337" height="5" x="-144.5" y="533.5" rx="2.5" transform="rotate(118, 24, 536)" opacity="0.37"/><rect width="502" height="5" x="-208" y="456.5" rx="2.5" transform="rotate(118, 43, 459)" opacity="0.76"/><rect width="539" height="5" x="-168.5" y="706.5" rx="2.5" transform="rotate(118, 101, 709)" opacity="0.60"/><rect width="823" height="5" x="-35.5" y="158.5" rx="2.5" transform="rotate(118, 376, 161)" opacity="0.76"/><rect width="340" height="5" x="524" y="473.5" rx="2.5" transform="rotate(118, 694, 476)" opacity="0.84"/><rect width="591" height="5" x="-42.5" y="754.5" rx="2.5" transform="rotate(118, 253, 757)" opacity="0.59"/><rect width="543" height="5" x="425.5" y="138.5" rx="2.5" transform="rotate(118, 697, 141)" opacity="0.92"/><rect width="665" height="5" x="340.5" y="45.5" rx="2.5" transform="rotate(118, 673, 48)" opacity="0.37"/><rect width="861" height="5" x="131.5" y="667.5" rx="2.5" transform="rotate(118, 562, 670)" opacity="0.25"/><rect width="343" height="5" x="159.5" y="341.5" rx="2.5" transform="rotate(118, 331, 344)" opacity="0.23"/><rect width="164" height="5" x="69" y="642.5" rx="2.5" transform="rotate(118, 151, 645)" opacity="0.72"/><rect width="803" height="5" x="-175.5" y="493.5" rx="2.5" transform="rotate(118, 226, 496)" opacity="0.63"/><rect width="47" height="5" x="474.5" y="722.5" rx="2.5" transform="rotate(118, 498, 725)" opacity="0.94"/><rect width="323" height="5" x="19.5" y="364.5" rx="2.5" transform="rotate(118, 181, 367)" opacity="0.92"/><rect width="338" height="5" x="440" y="733.5" rx="2.5" transform="rotate(118, 609, 736)" opacity="0.17"/><rect width="452" height="5" x="89" y="437.5" rx="2.5" transform="rotate(118, 315, 440)" opacity="0.64"/><rect width="191" height="5" x="21.5" y="266.5" rx="2.5" transform="rotate(118, 117, 269)" opacity="0.50"/><rect width="256" height="5" x="283" y="729.5" rx="2.5" transform="rotate(118, 411, 732)" opacity="0.89"/><rect width="582" height="5" x="105" y="499.5" rx="2.5" transform="rotate(118, 396, 502)" opacity="0.55"/><rect width="980" height="5" x="-165" y="658.5" rx="2.5" transform="rotate(118, 325, 661)" opacity="0.48"/><rect width="183" height="5" x="380.5" y="283.5" rx="2.5" transform="rotate(118, 472, 286)" opacity="0.66"/><rect width="311" height="5" x="-38.5" y="194.5" rx="2.5" transform="rotate(118, 117, 197)" opacity="0.55"/><rect width="285" height="5" x="340.5" y="664.5" rx="2.5" transform="rotate(118, 483, 667)" opacity="0.52"/><rect width="836" height="5" x="145" y="56.5" rx="2.5" transform="rotate(118, 563, 59)" opacity="0.15"/><rect width="168" height="5" x="60" y="124.5" rx="2.5" transform="rotate(118, 144, 127)" opacity="0.19"/><rect width="39" height="5" x="378.5" y="389.5" rx="2.5" transform="rotate(118, 398, 392)" opacity="0.22"/><rect width="274" height="5" x="106" y="610.5" rx="2.5" transform="rotate(118, 243, 613)" opacity="0.57"/><rect width="483" height="5" x="133.5" y="274.5" rx="2.5" transform="rotate(118, 375, 277)" opacity="0.42"/><rect width="571" height="5" x="468.5" y="740.5" rx="2.5" transform="rotate(118, 754, 743)" opacity="0.33"/><rect width="460" height="5" x="-190" y="287.5" rx="2.5" transform="rotate(118, 40, 290)" opacity="0.17"/><rect width="836" height="5" x="-381" y="205.5" rx="2.5" transform="rotate(118, 37, 208)" opacity="0.25"/><rect width="280" height="5" x="380" y="160.5" rx="2.5" transform="rotate(118, 520, 163)" opacity="0.50"/><rect width="406" height="5" x="444" y="642.5" rx="2.5" transform="rotate(118, 647, 645)" opacity="0.58"/><rect width="204" height="5" x="428" y="352.5" rx="2.5" transform="rotate(118, 530, 355)" opacity="0.75"/><rect width="678" height="5" x="132" y="584.5" rx="2.5" transform="rotate(118, 471, 587)" opacity="0.10"/><rect width="1094" height="5" x="-235" y="538.5" rx="2.5" transform="rotate(118, 312, 541)" opacity="0.86"/><rect width="700" height="5" x="-202" y="766.5" rx="2.5" transform="rotate(118, 148, 769)" opacity="0.41"/><rect width="127" height="5" x="312.5" y="25.5" rx="2.5" transform="rotate(118, 376, 28)" opacity="0.88"/><rect width="540" height="5" x="463" y="595.5" rx="2.5" transform="rotate(118, 733, 598)" opacity="0.33"/><rect width="232" height="5" x="453" y="586.5" rx="2.5" transform="rotate(118, 569, 589)" opacity="0.93"/><rect width="630" height="5" x="117" y="214.5" rx="2.5" transform="rotate(118, 432, 217)" opacity="0.10"/><rect width="89" height="5" x="592.5" y="289.5" rx="2.5" transform="rotate(118, 637, 292)" opacity="0.68"/><rect width="550" height="5" x="-236" y="377.5" rx="2.5" transform="rotate(118, 39, 380)" opacity="0.15"/><rect width="467" height="5" x="12.5" y="400.5" rx="2.5" transform="rotate(118, 246, 403)" opacity="0.54"/><rect width="48" height="5" x="534" y="767.5" rx="2.5" transform="rotate(118, 558, 770)" opacity="0.42"/><rect width="213" height="5" x="-71.5" y="658.5" rx="2.5" transform="rotate(118, 35, 661)" opacity="0.32"/><rect width="249" height="5" x="25.5" y="415.5" rx="2.5" transform="rotate(118, 150, 418)" opacity="0.41"/><rect width="395" height="5" x="-10.5" y="202.5" rx="2.5" transform="rotate(118, 187, 205)" opacity="0.97"/><rect width="394" height="5" x="-158" y="37.5" rx="2.5" transform="rotate(118, 39, 40)" opacity="0.92"/><rect width="450" height="5" x="90" y="28.5" rx="2.5" transform="rotate(118, 315, 31)" opacity="0.53"/><rect width="548" height="5" x="293" y="401.5" rx="2.5" transform="rotate(118, 567, 404)" opacity="0.27"/><rect width="512" height="5" x="513" y="479.5" rx="2.5" transform="rotate(118, 769, 482)" opacity="0.35"/><rect width="471" height="5" x="453.5" y="238.5" rx="2.5" transform="rotate(118, 689, 241)" opacity="0.31"/><rect width="157" height="5" x="-33.5" y="121.5" rx="2.5" transform="rotate(118, 45, 124)" opacity="0.44"/><rect width="636" height="5" x="-10" y="230.5" rx="2.5" transform="rotate(118, 308, 233)" opacity="0.44"/><rect width="96" height="5" x="346" y="607.5" rx="2.5" transform="rotate(118, 394, 610)" opacity="0.08"/><rect width="918" height="5" x="165" y="172.5" rx="2.5" transform="rotate(118, 624, 175)" opacity="0.30"/><rect width="487" height="5" x="-202.5" y="758.5" rx="2.5" transform="rotate(118, 41, 761)" opacity="0.79"/><rect width="215" height="5" x="569.5" y="754.5" rx="2.5" transform="rotate(118, 677, 757)" opacity="0.92"/><rect width="133" height="5" x="83.5" y="495.5" rx="2.5" transform="rotate(118, 150, 498)" opacity="0.85"/><rect width="742" height="5" x="97" y="372.5" rx="2.5" transform="rotate(118, 468, 375)" opacity="0.08"/><rect width="168" height="5" x="552" y="382.5" rx="2.5" transform="rotate(118, 636, 385)" opacity="0.56"/><rect width="308" height="5" x="-84" y="594.5" rx="2.5" transform="rotate(118, 70, 597)" opacity="0.20"/><rect width="652" height="5" x="284" y="488.5" rx="2.5" transform="rotate(118, 610, 491)" opacity="0.30"/><rect width="114" height="5" x="224" y="286.5" rx="2.5" transform="rotate(118, 281, 289)" opacity="0.35"/><rect width="97" height="5" x="399.5" y="75.5" rx="2.5" transform="rotate(118, 448, 78)" opacity="0.54"/><rect width="399" height="5" x="-90.5" y="447.5" rx="2.5" transform="rotate(118, 109, 450)" opacity="0.22"/></g></svg>
